<?xml version="1.0" encoding="iso-8859-1"?>
<!-- Uploaded to: SVG Repo, www.svgrepo.com, Transformed by: SVG Repo Tools -->
<svg height="800px" width="800px" version="1.1" id="Layer_1" xmlns="http://www.w3.org/2000/svg" xmlns:xlink="http://www.w3.org/1999/xlink" 
	 viewBox="0 0 448.001 448.001" xml:space="preserve">
<g transform="translate(0 -1020.36)" shape-rendering="auto" image-rendering="auto" color-rendering="auto" color-interpolation="sRGB">
	<path style="fill:#5A3392;" d="M87.375,1132.389c-4.197,0.313-7.434,3.822-7.406,8.031v32.031H39.938
		c-4.345,0.051-7.855,3.561-7.906,7.906v32H7.938c-4.406,0.035-7.954,3.625-7.938,8.031v47.969
		c-0.036,4.143,3.096,7.627,7.219,8.031c0.239,0.012,0.479,0.012,0.718,0h24.094v32c-0.017,4.395,3.513,7.979,7.906,8.031h40.031v32
		c0.029,4.094,3.144,7.506,7.219,7.906c0.271,0.014,0.542,0.014,0.813,0h47.969c4.394,0.018,7.979-3.512,8.031-7.906v-72.031h23.875
		v-17.719h28v17.719h108.031v72.031c0.029,4.094,3.144,7.506,7.219,7.906c0.271,0.014,0.542,0.014,0.813,0H360
		c4.357-0.033,7.886-3.549,7.938-7.906v-32h40.031c4.419,0.018,8.014-3.551,8.031-7.971c0-0.02,0-0.041,0-0.061v-32h23.969
		c4.419,0.018,8.014-3.551,8.031-7.971c0-0.02,0-0.041,0-0.061v-47.969c0.017-4.418-3.552-8.014-7.97-8.031c-0.02,0-0.041,0-0.061,0
		H416v-32c-0.052-4.395-3.637-7.924-8.031-7.906h-40.031v-32.031c0.017-4.406-3.532-7.996-7.938-8.031h-48.062
		c-4.419-0.018-8.014,3.551-8.031,7.971c0,0.02,0,0.041,0,0.061v71.938h-25.562v16.969h-28v-16.969H144v-71.938
		c0.017-4.418-3.552-8.014-7.97-8.031c-0.02,0-0.041,0-0.061,0H88C87.792,1132.381,87.583,1132.381,87.375,1132.389L87.375,1132.389
		z"/>
	<path style="fill:#29A3EC;" d="M95.898,1340.376h32.032v-192.031H95.898V1340.376z"/>
	<path style="fill:#EE746C;" d="M47.961,1300.342h32v-111.967h-32V1300.342z"/>
	<g>
		<path style="fill:#EBFEFF;" d="M15.961,1260.407h16.063v-31.998H15.961V1260.407z"/>
		<path style="fill:#EBFEFF;" d="M143.993,1260.407h159.906v-31.998H143.993L143.993,1260.407L143.993,1260.407z"/>
	</g>
	<path style="fill:#3CDEF6;" d="M95.899,1244.313v-95.969h32.031v95.969C127.93,1244.313,95.899,1244.313,95.899,1244.313z"/>
	<path style="fill:#29A3EC;" d="M319.962,1148.34h32v192.031h-32V1148.34z"/>
	<path style="fill:#3CDEF6;" d="M319.961,1244.403v95.969h32v-95.969H319.961z"/>
	<path style="fill:#FB9761;" d="M47.961,1244.313v-55.938h32v55.938H47.961z"/>
	<path style="fill:#EE746C;" d="M367.93,1188.376h32v111.967h-32V1188.376z"/>
	<path style="fill:#FB9761;" d="M367.93,1244.403v55.938h32v-55.938H367.93z"/>
	<g>
		<path style="fill:#FFFFFF;" d="M15.961,1244.313v-15.906h16.063v15.906H15.961z"/>
		<path style="fill:#FFFFFF;" d="M143.992,1244.313v-15.906h159.906v15.906H143.992L143.992,1244.313z"/>
	</g>
	<path style="fill:#EBFEFF;" d="M415.992,1228.407h15.938v31.998h-15.938V1228.407z"/>
	<path style="fill:#FFFFFF;" d="M415.992,1244.499v15.906h15.938v-15.906H415.992z"/>
</g>
<g>
</g>
<g>
</g>
<g>
</g>
<g>
</g>
<g>
</g>
<g>
</g>
<g>
</g>
<g>
</g>
<g>
</g>
<g>
</g>
<g>
</g>
<g>
</g>
<g>
</g>
<g>
</g>
<g>
</g>
</svg>