<?xml version="1.0" encoding="iso-8859-1"?>
<!-- Uploaded to: SVG Repo, www.svgrepo.com, Transformed by: SVG Repo Tools -->
<svg version="1.1" id="Layer_1" xmlns="http://www.w3.org/2000/svg" xmlns:xlink="http://www.w3.org/1999/xlink" 
	 viewBox="0 0 512 512" xml:space="preserve">
<circle style="fill:#324A5E;" cx="256" cy="256" r="256"/>
<path style="fill:#2B3B4E;" d="M272.684,511.445c103.155-6.639,189.683-74.352,223.765-167.374L382.183,229.805l-2.777,7.378
	l-38.073-38.072l-48.364,49.65L204,159.792l-47.987,72.073l-43.87,55.108l63.147,62.402L128,366.761L272.684,511.445z"/>
<g>
	<path style="fill:#66B31B;" d="M121.463,294.259c25.285,17.122,56.382,19.018,82.51,7.82c0.696-28.42-12.61-56.592-37.895-73.714
		s-56.382-19.018-82.51-7.82C82.872,248.965,96.178,277.137,121.463,294.259z"/>
	<path style="fill:#66B31B;" d="M166.079,228.364c-25.112-17.005-55.955-18.977-81.972-8.03l119.86,80.798
		C204.35,273.034,191.083,245.296,166.079,228.364z"/>
</g>
<path style="fill:#599B13;" d="M84.108,220.334c-0.178,0.074-0.36,0.134-0.538,0.212c-0.696,28.42,12.61,56.592,37.895,73.714
	c25.285,17.122,56.382,19.018,82.51,7.82c0.009-0.315-0.01-0.629-0.005-0.946L84.108,220.334z"/>
<path style="fill:#7CBC39;" d="M147.942,218.393c2.912,30.396,21.261,55.575,46.539,68.58c22.35-17.568,35.587-45.775,32.675-76.171
	c-2.912-30.398-21.261-55.575-46.539-68.58C158.267,159.791,145.03,187.997,147.942,218.393z"/>
<path style="fill:#679B2C;" d="M180.617,142.222c-22.35,17.568-35.587,45.775-32.675,76.171
	c2.905,30.318,21.17,55.439,46.345,68.472l-13.281-144.427C180.876,142.369,180.75,142.291,180.617,142.222z"/>
<polygon style="fill:#FFD15D;" points="312.889,341.333 199.111,341.333 170.667,199.111 341.333,199.111 "/>
<rect x="128" y="338.316" style="fill:#F9B54C;" width="256" height="28.444"/>
<rect x="254.914" y="338.316" style="fill:#F4A200;" width="128" height="28.444"/>
<path style="fill:#F9B54C;" d="M355.987,218.936c-7.273,0-14.043,2.136-19.771,5.77l5.118-25.595H256v142.222h56.889l12.809-64.041
	c6.715,9.523,17.777,15.772,30.289,15.772c20.437,0,37.064-16.627,37.064-37.064S376.423,218.936,355.987,218.936z M355.987,275.825
	c-10.931,0-19.825-8.894-19.825-19.825c0-10.931,8.894-19.825,19.825-19.825c10.931,0,19.825,8.894,19.825,19.825
	C375.811,266.931,366.918,275.825,355.987,275.825z"/>
<g>
</g>
<g>
</g>
<g>
</g>
<g>
</g>
<g>
</g>
<g>
</g>
<g>
</g>
<g>
</g>
<g>
</g>
<g>
</g>
<g>
</g>
<g>
</g>
<g>
</g>
<g>
</g>
<g>
</g>
</svg>