<?xml version="1.0" encoding="iso-8859-1"?>
<!-- Uploaded to: SVG Repo, www.svgrepo.com, Transformed by: SVG Repo Tools -->
<svg height="800px" width="800px" version="1.1" id="Layer_1" xmlns="http://www.w3.org/2000/svg" xmlns:xlink="http://www.w3.org/1999/xlink" 
	 viewBox="0 0 512 512" xml:space="preserve">
<circle style="fill:#FC6F58;" cx="256" cy="256" r="256"/>
<path style="fill:#F1543F;" d="M300.373,508.157c106.336-18.584,190.095-102.783,208.041-209.336L383.478,173.885l-214.821,33.271
	l-46.259,12.028l89.502,89.502l-72.466,38.531L300.373,508.157z"/>
<path style="fill:#FFD15D;" d="M349.098,357.926H162.902c-17.174,0-31.096-13.922-31.096-31.096V203.769h248.389V326.83
	C380.194,344.004,366.271,357.926,349.098,357.926z"/>
<path style="fill:#F9B54C;" d="M255.426,203.769v154.157h93.672c17.174,0,31.096-13.922,31.096-31.096V203.769H255.426z"/>
<path style="fill:#FFFFFF;" d="M389.603,219.184H122.397v-25.019c0-20.237,16.406-36.643,36.643-36.643h193.919
	c20.237,0,36.643,16.406,36.643,36.643L389.603,219.184L389.603,219.184z"/>
<path style="fill:#D0D1D3;" d="M389.603,194.165c0-20.239-16.406-36.643-36.643-36.643h-97.533v61.662h134.177V194.165z"/>
<path style="fill:#2C9984;" d="M261.761,278.456c-18.339,9.645-29.391,27.579-30.996,46.704
	c16.841,9.423,37.997,10.419,56.336,0.774c18.339-9.645,29.391-27.579,30.996-46.704C301.256,269.805,280.1,268.81,261.761,278.456z
	"/>
<path style="fill:#217A69;" d="M230.831,324.598c-0.017,0.188-0.048,0.374-0.066,0.562c16.841,9.423,37.997,10.418,56.336,0.772
	c18.339-9.645,29.391-27.581,30.996-46.704c-0.066-0.036-0.134-0.069-0.202-0.105L230.831,324.598z"/>
<path style="fill:#247F6E;" d="M226.733,269.279c-8.59,18.765-6.31,39.667,4.18,55.779c19.13-2.762,36.495-14.814,45.085-33.577
	c8.59-18.765,6.31-39.667-4.18-55.779C252.688,238.464,235.323,250.515,226.733,269.279z"/>
<path style="fill:#185B4E;" d="M271.819,235.703c-0.274,0.04-0.543,0.1-0.815,0.143l-40.751,88.124
	c0.224,0.36,0.429,0.733,0.662,1.09c19.13-2.762,36.495-14.814,45.085-33.577C284.589,272.717,282.31,251.814,271.819,235.703z"/>
<g>
</g>
<g>
</g>
<g>
</g>
<g>
</g>
<g>
</g>
<g>
</g>
<g>
</g>
<g>
</g>
<g>
</g>
<g>
</g>
<g>
</g>
<g>
</g>
<g>
</g>
<g>
</g>
<g>
</g>
</svg>