<?xml version="1.0" encoding="iso-8859-1"?>
<!-- Uploaded to: SVG Repo, www.svgrepo.com, Transformed by: SVG Repo Tools -->
<svg height="800px" width="800px" version="1.1" id="Layer_1" xmlns="http://www.w3.org/2000/svg" xmlns:xlink="http://www.w3.org/1999/xlink" 
	 viewBox="0 0 448.089 448.089" xml:space="preserve">
<g transform="translate(0 -1020.36)">
	<g shape-rendering="auto" image-rendering="auto" color-rendering="auto" color-interpolation="sRGB">
		<path style="fill:#5A3392;" d="M31.27,1036.42c-4.064,0.416-7.161,3.82-7.187,7.907v32.031c-0.016,4.445,3.586,8.049,8.031,8.031
			h5.781v1.408c-0.424,16.783-10.101,36.711-19.969,58c-9.868,21.285-19.893,44.215-17.594,68.844v37.719h19.375v47.377H0.333
			v26.656h-0.25v15.938h0.25v55.623c0,11.969,3.827,24.098,11,33.783c3.979,5.369,9.172,10.646,15,14.873
			c5.83,4.227,12.116,7.813,19.594,7.813h84.563c14.678,0,25.074-10.551,32.437-20c0.968,2.111,1.861,4.379,2.937,6.281
			c1.04,1.838,2.397,4.656,4.719,7.469c2.322,2.818,6.411,6.303,12.031,6.25c14.495-0.176,33.935-0.176,48.437,0h0.128
			c5.666,0,9.586-3.605,11.812-6.375c2.225-2.77,3.656-5.412,4.594-6.846c5.594-8.553,9.992-20.67,13.469-31.063
			c2.377-7.107,3.093-9.754,4-13l22.469-0.256c1.058,3.133,1.996,6.021,4.844,13.344c4.028,10.355,9.105,22.43,14.875,30.844
			c0.883,1.297,2.174,3.953,4.375,6.721c2.195,2.77,6.173,6.426,11.906,6.375h0.128c14.503-0.176,33.943-0.176,48.438,0
			c5.563,0,9.595-3.314,11.937-6.125c2.34-2.813,3.785-5.635,4.844-7.563c8.173-14.912,12.497-36.748,15.344-55.406
			c1.808-11.836,2.725-20.588,3.281-26.686h18.156c12.274,0,22.438-10.037,22.438-22.314v-11.125
			c0-12.277-10.165-22.313-22.438-22.313h-28.719l1.219-16.063v-0.256c-0.015-24.828-8.825-48.076-24.937-61.563
			c-16.116-13.484-38.243-13.441-54.312,0.191c-0.605,0.48-1.062,1.072-1.625,1.6c-9.195-16.641-23.588-27.771-40.312-28.154
			c-17.125-0.416-32.226,10.668-41.812,27.623c-0.483-0.416-0.917-0.881-1.406-1.279c-16.845-13.4-39.421-13.389-56.219,0.191
			c-0.544,0.416-1.011,0.961-1.531,1.408l0.128-12.127v-0.256c-0.424-24.604-10.524-47.25-19.844-68.281
			c-9.32-21.031-17.719-40.512-17.719-57.5v-1.656h5.531c4.445,0,8.049-3.588,8.031-8.031v-32.03
			c-0.048-4.391-3.634-7.925-8.031-7.907H73.779v20.969h-24v-20.97H32.123c-0.302-0.015-0.541-0.015-0.843,0v-0.16l0,0
			L31.27,1036.42z"/>
		<path style="fill:#EE746C;" d="M40.02,1052.357h96.031v15.969H45.926h-5.908v-15.969H40.02z"/>
		<path style="fill:#29A3EC;" d="M53.958,1084.392h68.5v1.656c0,22.021,9.97,43.059,19.25,64
			c6.904,15.578,13.477,31.045,16.531,46.313H16.739c2.056-14.807,8.473-30.213,15.719-45.844
			c9.709-20.943,20.976-42.037,21.5-64.25v-0.24v-1.656V1084.392z"/>
		<g>
			<path style="fill:#FFFFFF;" d="M16.395,1212.421H160.02l-0.363,33.779c-5.37,11.406-8.305,24.621-8.281,38.377v0.24l1.282,15.689
				l-18.188-0.176c-10.884-0.16-19.932,7.844-21.968,18.125c-0.302,1.424-0.484,2.861-0.484,4.342v1.535H16.362v-111.938
				L16.395,1212.421z"/>
			<path style="fill:#FFFFFF;" d="M276.614,1212.421c11.145,0.24,22.505,9.385,29.437,25.936
				c-7.797,12.941-11.997,29.166-11.969,46.219v0.305l1.222,15.781h-36.625l1.282-16v-0.305
				c-0.011-17.535-4.735-34.199-13.344-47.25c7.254-16.326,18.802-24.943,30-24.686H276.614z"/>
			<path style="fill:#FFFFFF;" d="M346.02,1228.046c5.66,0.008,11.334,2.371,16.906,7.031c11.119,9.307,19.111,28.26,19.156,49.125
				v0.176l-1.222,16.281H311.33l-1.185-16.156v-0.176c-0.002-20.863,7.892-39.881,19-49.252c5.563-4.697,11.214-7.039,16.875-7.031
				L346.02,1228.046z"/>
			<path style="fill:#FFFFFF;" d="M205.614,1228.171c6.14,0.008,12.277,2.389,18.188,7.094c11.821,9.41,20.081,28.311,20.094,49.125
				l-1.312,16.25h-73.375c-1.034-8.838-1.385-16.328-1.125-22.563c0.363-8.885,3.447-16.959,6.25-24.842
				c3.423-7.373,7.802-13.725,13.093-17.969c5.902-4.734,12.047-7.102,18.188-7.094L205.614,1228.171z"/>
		</g>
		<path style="fill:#FB9761;" d="M134.52,1316.577h23.469h3.937c0.056,0,0.122,0,0.181,0H425.67c3.743,0,6.375,2.746,6.375,6.375
			v11.127c0,3.633-2.637,6.25-6.375,6.25H134.544c-1.869,0-3.501-0.672-4.656-1.783c-0.605-0.545-1.028-1.232-1.343-2.002
			c-0.302-0.736-0.484-1.584-0.484-2.467v-0.16v-9.563v-1.535c0.032-3.605,2.782-6.313,6.5-6.313L134.52,1316.577z"/>
		<path style="fill:#29A3EC;" d="M16.395,1340.327h96.688c1.373,4.584,4.167,8.559,7.906,11.406c0.053,0,0.121,0,0.181,0.16
			c1.766,1.313,3.713,2.365,5.811,3.127c0.302,0.16,0.623,0.176,0.937,0.305c2.08,0.656,4.251,1.119,6.531,1.119
			c0.032,0,0.061,0,0.122,0h8.25c0.768,7.111,3.967,33.773,11.688,60c-0.738,1.328-1.421,2.787-2.25,3.906
			c-6.298,8.498-15.21,16.061-21.719,16.061H45.978c-1.379,0-5.817-1.568-10.156-4.717c-4.336-3.15-8.717-7.465-11.593-11.344
			c-4.85-6.547-7.782-15.889-7.782-24.344v-55.623L16.395,1340.327z"/>
		<path style="fill:#EE746C;" d="M161.083,1356.39h230.312c-0.605,6.023-1.512,14.209-3.06,24.342
			c-2.739,17.939-7.633,39.188-13.594,50.064c-1.119,2.045-2.231,3.973-3.066,4.971c-0.302,0.416-0.363,0.416-0.423,0.48
			c-14.275-0.176-32.643-0.176-46.938,0c-0.048,0,0.008,0-0.242-0.367c-0.877-1.104-2.092-3.35-3.78-5.811
			c-4.046-5.902-9.243-17.723-13.094-27.625c-3.852-9.904-6.5-17.938-6.5-17.938c-1.064-3.34-4.185-5.588-7.687-5.563l-34,0.176
			c-3.628,0-6.781,2.49-7.687,5.998c0,0-2.135,8.088-5.436,17.969c-3.308,9.881-8.072,21.688-11.813,27.408
			c-1.548,2.369-2.661,4.449-3.532,5.533c-0.302,0.367-0.242,0.305-0.302,0.367c-14.314-0.176-32.725-0.176-47.031,0
			c-0.032,0,0.016,0-0.242-0.367c-0.835-1.008-1.996-3.078-3.187-5.189c-6.2-10.965-11.716-32.229-15-50.188
			c-1.838-10.057-2.957-18.23-3.719-24.25L161.083,1356.39z"/>
		<path style="fill:#EBFEFF;" d="M29.223,1222.415h117.963l-0.302,27.744c-4.408,9.367-6.821,20.223-6.802,31.52v0.176l1.052,12.887
			l-14.938-0.16c-8.939-0.16-16.371,6.439-18.043,14.887c-0.242,1.152-0.423,2.352-0.423,3.568v1.264H29.164v-91.939
			L29.223,1222.415z"/>
		<path style="fill:#5A3392;" d="M87.74,1236.362c-2.508,0.096-4.826,1.363-6.26,3.424c0,0-4.197,6.012-8.386,13.227
			c-2.092,3.611-4.215,7.605-5.908,11.457S64,1271.775,64,1276.4c0,13.158,10.933,23.977,24.094,23.977s23.977-10.818,23.977-23.977
			c0-4.627-1.5-8.08-3.187-11.93c-1.693-3.854-3.81-7.85-5.902-11.457c-4.185-7.217-8.386-13.227-8.386-13.227
			c-1.554-2.23-4.134-3.521-6.851-3.424H87.74z"/>
		<path style="fill:#29A3EC;" d="M88.103,1259.394c0.484,0.848,0.544,0.752,1.064,1.65c1.905,3.289,3.767,6.826,5.08,9.803
			c1.306,2.975,1.772,5.756,1.772,5.553c0,4.51-3.405,8.031-7.913,8.031c-4.511,0-8.031-3.52-8.031-8.031
			c0,0.176,0.484-2.578,1.772-5.553c1.306-2.977,3.29-6.516,5.195-9.803c0.544-0.896,0.544-0.801,1.064-1.65H88.103z"/>
		<path style="fill:#3CDEF6;" d="M59.796,1094.136h56.573v1.359c0,18.188,8.234,35.563,15.898,52.855
			c5.703,12.865,11.131,25.641,13.653,38.248H29.058c1.699-12.227,6.998-24.951,12.982-37.861
			c8.019-17.297,17.324-34.717,17.757-53.061v-0.176v-1.359L59.796,1094.136z"/>
		<path style="fill:#FFFFFF;" d="M74.76,1104.083c-3.56-0.154-6.658,2.412-7.167,5.939c-2.358,14.73-5.074,27.275-12.696,38.701
			c-2.083,3.219-1.163,7.518,2.056,9.602c3.167,2.049,7.391,1.195,9.513-1.924c9.366-14.039,12.417-28.971,14.845-44.127
			c0.695-3.768-1.794-7.385-5.561-8.08c-0.327-0.061-0.659-0.096-0.991-0.109L74.76,1104.083z"/>
	</g>
	<path style="fill:#FFFFFF;" d="M53.87,1170.714c0,3.83-3.105,6.934-6.935,6.934c-3.83,0-6.934-3.104-6.934-6.934
		c0-3.83,3.105-6.934,6.934-6.934C50.765,1163.78,53.87,1166.884,53.87,1170.714z"/>
	<g shape-rendering="auto" image-rendering="auto" color-rendering="auto" color-interpolation="sRGB">
		<path style="fill:#3CDEF6;" d="M29.613,1349.521h78.181c1.113,3.707,3.368,6.92,6.393,9.223c0.043,0,0.121,0,0.121,0.16
			c1.427,1.057,2.999,1.91,4.699,2.527c0.242,0.16,0.484,0.16,0.756,0.24c1.681,0.545,3.441,0.912,5.279,0.912
			c0.025,0,0.049,0,0.121,0h6.671c0.623,5.75,3.205,27.309,9.451,48.516c-0.605,1.072-1.149,2.256-1.82,3.156
			c-5.092,6.871-12.299,12.986-17.562,12.986H53.526c-1.113,0-4.705-1.264-8.213-3.814c-3.507-2.547-7.049-6.035-9.374-9.172
			c-3.925-5.291-6.292-12.85-6.292-19.686v-44.979L29.613,1349.521z"/>
		<g>
			<path style="fill:#EBFEFF;" d="M276.563,1228.425c9.125,0.176,18.425,7.686,24.1,21.234c-6.383,10.596-9.822,23.877-9.798,37.838
				v0.24l0.998,12.92h-29.984l1.052-13.1v-0.24c-0.009-14.357-3.435-28.969-10.482-39.654c5.938-13.367,14.951-19.449,24.119-19.24
				L276.563,1228.425z"/>
			<path style="fill:#EBFEFF;" d="M205.646,1235.028c5.557,0.006,11.114,2.164,16.465,6.426
				c10.702,8.518,18.18,25.631,18.191,44.473l-1.191,14.711h-66.428c-0.937-8.002-1.252-14.781-1.022-20.426
				c0.363-8.045,3.12-15.354,5.66-22.49c3.102-6.674,7.064-12.424,11.854-16.268c5.346-4.281,10.906-6.432,16.465-6.426H205.646z"/>
			<path style="fill:#EBFEFF;" d="M345.814,1235.028c5.557,0.006,11.114,2.164,16.465,6.426
				c10.702,8.518,18.18,25.631,18.191,44.473l-1.191,14.711h-66.428c-0.937-8.002-1.252-14.781-1.022-20.426
				c0.363-8.045,3.12-15.354,5.66-22.49c3.102-6.674,7.064-12.424,11.854-16.268c5.346-4.281,10.906-6.432,16.465-6.426H345.814z"/>
		</g>
		<path style="fill:#3CDEF6;" d="M88.091,1261.394c0.363,0.656,0.423,0.607,0.828,1.297c1.488,2.57,2.939,5.322,3.961,7.65
			c1.016,2.322,1.385,4.492,1.385,4.33c0,3.527-2.655,6.268-6.175,6.268c-3.519,0-6.267-2.744-6.267-6.268
			c0,0.176,0.363-2.006,1.385-4.33c1.016-2.322,2.57-5.08,4.052-7.65c0.423-0.703,0.423-0.623,0.828-1.297H88.091z"/>
	</g>
</g>
<g>
</g>
<g>
</g>
<g>
</g>
<g>
</g>
<g>
</g>
<g>
</g>
<g>
</g>
<g>
</g>
<g>
</g>
<g>
</g>
<g>
</g>
<g>
</g>
<g>
</g>
<g>
</g>
<g>
</g>
</svg>