<?xml version="1.0" encoding="iso-8859-1"?>
<!-- Uploaded to: SVG Repo, www.svgrepo.com, Transformed by: SVG Repo Tools -->
<svg height="800px" width="800px" version="1.1" id="Layer_1" xmlns="http://www.w3.org/2000/svg" xmlns:xlink="http://www.w3.org/1999/xlink" 
	 viewBox="0 0 447.984 447.984" xml:space="preserve">
<g transform="translate(0 -1020.36)" shape-rendering="auto" image-rendering="auto" color-rendering="auto" color-interpolation="sRGB">
	<path style="fill:#29A3EC;" d="M223.979,1030.401c118.287,0,213.993,95.706,213.992,213.991
		c0,118.287-95.706,213.992-213.992,213.992c-118.287,0-213.992-95.705-213.992-213.992
		C9.987,1126.105,105.693,1030.4,223.979,1030.401L223.979,1030.401z"/>
	<path style="fill:#36CAF3;" d="M223.979,1046.665c109.297,0,197.729,88.432,197.729,197.729
		c0,109.297-88.432,197.729-197.729,197.73c-109.297,0-197.729-88.434-197.729-197.73
		C26.25,1135.097,114.683,1046.665,223.979,1046.665L223.979,1046.665z"/>
	<g>
		<path style="fill:#5A3392;" d="M223.998,1172.339c-4.656,0-9.303,1.359-13.344,4.031l-47.969,31.623
			c-8.429,5.564-12.441,15.926-9.969,25.721l16.281,64.469c2.688,10.643,12.335,18.154,23.313,18.154h63.344
			c10.977,0,20.656-7.512,23.344-18.154l16.281-64.469c2.473-9.793-1.54-20.154-9.969-25.721l-47.969-31.623
			C233.301,1173.703,228.654,1172.339,223.998,1172.339z M219.467,1189.716c2.771-1.83,6.291-1.83,9.063,0l47.969,31.656
			c2.801,1.848,4.072,5.184,3.25,8.438l-16.281,64.469c-0.913,3.617-4.081,6.063-7.813,6.063H192.31
			c-3.731,0-6.899-2.445-7.813-6.063l-16.281-64.469c-0.822-3.252,0.48-6.588,3.281-8.438L219.467,1189.716L219.467,1189.716z"/>
		<path style="fill:#5A3392;" d="M303.31,1035.463c-2.356-0.01-4.597,1.019-6.125,2.813l-11.844,13.593h-0.032
			c-1.011,1.008-2.246,1.766-3.656,2.125l0,0l-55.75,14.156c-1.247,0.32-2.557,0.305-3.813,0h-0.032l-55.75-14.156l0,0
			c-1.387-0.352-2.639-1.104-3.656-2.125l-12.875-13.063c-3.107-3.149-8.179-3.185-11.329-0.077
			c-3.15,3.107-3.184,8.179-0.077,11.329l12.875,13.063c3.056,3.092,6.898,5.301,11.125,6.375l55.781,14.125
			c3.827,0.961,7.83,0.961,11.656,0c0.011,0,0.021,0,0.032,0l55.75-14.125c0.011,0,0.021,0,0.032,0
			c4.204-1.072,8.032-3.277,11.094-6.375c0.119-0.125,0.233-0.252,0.344-0.385l12.188-13.938c2.951-3.289,2.677-8.348-0.612-11.298
			c-1.463-1.313-3.359-2.042-5.325-2.046L303.31,1035.463z"/>
		<path style="fill:#5A3392;" d="M68.81,1092.37c-4.417,0.107-7.911,3.777-7.802,8.195c0.033,1.324,0.394,2.621,1.052,3.773
			l9.063,16.314c0.01,0,0.021,0,0.031,0c0.619,1.104,0.903,2.436,0.812,3.875l-4.063,57.281c-0.083,1.199-0.476,2.369-1.156,3.375
			l-32.969,48.75c-0.776,1.152-1.873,2.031-3.125,2.656l-23.625,7.094c-4.247,1.24-6.684,5.691-5.443,9.938
			c1.241,4.248,5.691,6.686,9.938,5.443c0.044-0.012,0.087-0.025,0.13-0.039l24.562-7.404c0.363-0.107,0.718-0.242,1.062-0.4
			c3.927-1.84,7.314-4.713,9.75-8.314l32.969-48.725c2.259-3.338,3.596-7.199,3.875-11.219l4.063-57.344l0,0
			c0.272-4.32-0.632-8.746-2.844-12.688l0,0l-9.063-16.281c-1.43-2.639-4.217-4.256-7.219-4.188V1092.37z"/>
		<path style="fill:#5A3392;" d="M380.873,1089.12c-2.636,0.209-4.999,1.705-6.313,4l-11.563,19.563
			c-2.44,4.107-3.203,8.652-2.938,12.875l0,0l4.063,57.344c0.279,4.021,1.616,7.881,3.875,11.219l32.969,48.748
			c2.441,3.607,5.804,6.475,9.719,8.314l21.375,12.063c3.73,2.369,8.674,1.266,11.043-2.465c2.369-3.73,1.265-8.676-2.465-11.043
			c-0.227-0.145-0.462-0.277-0.702-0.398l-21.906-12.375c-0.173-0.102-0.351-0.197-0.531-0.287
			c-1.334-0.623-2.472-1.584-3.281-2.781l-32.969-48.75c-0.68-1.008-1.104-2.174-1.188-3.375l-4.063-57.344h0.032
			c-0.098-1.553,0.195-2.836,0.719-3.719l11.594-19.563c2.308-3.768,1.125-8.693-2.643-11.002c-1.446-0.887-3.136-1.289-4.826-1.152
			L380.873,1089.12z"/>
		<path style="fill:#5A3392;" d="M56.967,1340.839c-0.031,0-0.063,0-0.094,0l-19.313,4.406c-4.333,0.865-7.145,5.078-6.28,9.412
			c0.865,4.334,5.079,7.145,9.412,6.279c0.144-0.027,0.288-0.061,0.43-0.098l19.281-4.406c1.287-0.256,2.598-0.16,3.844,0.352
			c0.031,0,0.063,0,0.094,0l53.313,20c1.158,0.432,2.121,1.137,2.875,2.063c0.01,0,0.021,0,0.031,0l35.719,43.969l0,0
			c0.863,1.057,1.405,2.326,1.563,3.688l2.188,22.531c0.424,4.4,4.335,7.625,8.736,7.201s7.625-4.336,7.201-8.736l0,0l-2.219-22.688
			c0.001-0.053,0.001-0.107,0-0.16c-0.507-4.383-2.284-8.516-5.063-11.938l0,0l-35.719-43.969c-2.553-3.146-5.904-5.518-9.656-6.938
			c-0.01,0-0.021,0-0.031,0l-53.344-20h0.094c-4.151-1.615-8.696-1.996-13.063-1.057L56.967,1340.839z"/>
		<path style="fill:#5A3392;" d="M391.029,1340.839c-4.366-0.928-8.943-0.561-13.094,1.057h0.094l-53.344,20.031
			c-3.75,1.424-7.102,3.789-9.656,6.938l-35.75,44c-2.779,3.422-4.524,7.586-5.031,11.969c-0.011,0.053-0.022,0.107-0.032,0.16
			l-2.188,22.688c-0.424,4.4,2.8,8.313,7.201,8.736s8.312-2.801,8.736-7.201l0,0l2.188-22.596l0,0
			c0.176-1.313,0.695-2.535,1.531-3.563c0.011,0,0.021,0,0.032,0l35.719-44c0.748-0.928,1.725-1.623,2.875-2.063l53.344-20
			c0.031,0,0.063,0,0.094,0c1.276-0.496,2.62-0.592,3.938-0.305c0.031,0,0.063,0,0.094,0l18.531,3.719
			c4.339,0.838,8.535-2,9.373-6.34c0.828-4.291-1.939-8.451-6.216-9.348l-18.438-3.686L391.029,1340.839z"/>
		<path style="fill:#5A3392;" d="M215.998,1072.339v108h16v-108H215.998z"/>
		<path style="fill:#5A3392;" d="M69.467,1180.37l-5.469,15.031l90.531,32.969l5.469-15.063L69.467,1180.37z"/>
		<path style="fill:#5A3392;" d="M378.529,1180.37l-90.531,32.938l5.469,15.063l90.531-32.969L378.529,1180.37z"/>
		<path style="fill:#5A3392;" d="M171.029,1300.37l-51.031,70.623l12.969,9.377l51.031-70.656L171.029,1300.37z"/>
		<path style="fill:#5A3392;" d="M276.967,1300.37l-12.969,9.344l51.031,70.656l12.969-9.377L276.967,1300.37z"/>
	</g>
	<g>
		<path style="fill:#FFFFFF;" d="M223.991,1036.398c23.095,0,45.221,3.914,65.969,10.844l-4.566,4.627
			c-1.01,1.023-2.383,1.766-3.78,2.121l-55.75,14.188c-1.258,0.305-2.522,0.305-3.78,0l-55.75-14.188
			c-1.397-0.367-2.643-1.088-3.659-2.121l-4.596-4.656c20.723-6.912,42.844-10.812,65.906-10.812L223.991,1036.398z"/>
		<path style="fill:#FFFFFF;" d="M382.678,1110.023c30.712,36.244,49.281,83.09,49.281,134.377c0,0.176-0.03,0.305-0.032,0.48
			l-13.906-7.814c-0.202-0.131-0.41-0.254-0.623-0.367c-1.336-0.623-2.383-1.535-3.187-2.715l-33.062-48.783
			c-0.677-1.008-0.98-2.238-1.064-3.436l-4.124-57.281c-0.122-1.439,0.181-2.68,0.81-3.781c0.001-0.053,0.001-0.107,0-0.16
			l5.908-10.594L382.678,1110.023z"/>
		<path style="fill:#FFFFFF;" d="M65.272,1110.054l5.878,10.563c-0.001,0.053-0.001,0.107,0,0.16c0.617,1.104,0.901,2.34,0.81,3.779
			l-3.997,57.281c-0.06,1.199-0.484,2.402-1.185,3.404l-32.938,48.783c-0.81,1.199-1.977,2.086-3.314,2.715l-14.437,5.498
			c0.544-50.406,18.933-96.439,49.187-132.154L65.272,1110.054z"/>
		<path style="fill:#FFFFFF;" d="M224.053,1188.335c1.584,0,3.145,0.48,4.529,1.377l47.969,31.656
			c2.8,1.852,4.009,5.123,3.187,8.375l-16.312,64.5c-0.913,3.615-4.082,6.125-7.813,6.125h-63.281c-3.731,0-6.899-2.502-7.812-6.125
			l-16.282-64.5c-0.822-3.252,0.484-6.525,3.284-8.375l47.969-31.656c1.385-0.912,2.981-1.377,4.56-1.377H224.053z"/>
		<path style="fill:#FFFFFF;" d="M387.678,1356.46c0.041,0,0.081,0,0.122,0l10.031,2.031
			c-25.619,38.986-63.963,68.764-109.187,83.531l1.469-15.373c0.181-1.359,0.665-2.715,1.53-3.781l35.812-43.938
			c0.756-0.928,1.663-1.686,2.812-2.121l53.406-19.971c0.041,0,0.081,0,0.122,0c1.282-0.48,2.552-0.641,3.876-0.367L387.678,1356.46
			z"/>
		<path style="fill:#FFFFFF;" d="M60.147,1356.492c0.04,0,0.081,0,0.121,0c1.318-0.305,2.751-0.16,4.034,0.367l53.375,19.969
			c1.149,0.432,2.086,1.184,2.842,2.123l35.782,43.938c0.865,1.057,1.373,2.42,1.53,3.779l1.53,15.406
			c-45.234-14.756-83.588-44.518-109.219-83.5l10-2.061L60.147,1356.492z"/>
	</g>
	<g>
		<path style="fill:#EBFEFF;" d="M224.043,1198.236c1.306,0,2.588,0.416,3.731,1.137l39.492,26.063
			c2.304,1.52,3.302,4.215,2.624,6.895l-13.429,53.102c-0.75,2.975-3.362,5.043-6.432,5.043h-52.097
			c-3.072,0-5.678-2.063-6.432-5.043l-13.404-53.102c-0.677-2.68,0.423-5.371,2.703-6.895l39.492-26.063
			c1.143-0.752,2.455-1.137,3.755-1.137H224.043z"/>
		<path style="fill:#EBFEFF;" d="M64.83,1360.976c0.04,0,0.081,0,0.121,0c1.179-0.24,2.461-0.16,3.61,0.305l47.772,17.873
			c1.028,0.367,1.869,1.057,2.546,1.898l32.025,39.324c0.774,0.961,1.228,2.164,1.367,3.381l1.367,13.789
			c-40.485-13.207-74.812-39.846-97.752-74.734l8.95-1.846L64.83,1360.976z"/>
		<path style="fill:#EBFEFF;" d="M383.168,1360.958c-0.041,0-0.081,0-0.122,0c-1.179-0.24-2.461-0.16-3.61,0.305l-47.772,17.873
			c-1.028,0.367-1.869,1.057-2.546,1.898l-32.025,39.326c-0.774,0.961-1.228,2.164-1.367,3.379l-1.367,13.789
			c40.485-13.207,74.812-39.844,97.752-74.732l-8.95-1.846L383.168,1360.958z"/>
		<path style="fill:#EBFEFF;" d="M420.274,1229.054c-0.041,0-0.081,0-0.122,0c-1.125-0.416-2.123-1.248-2.854-2.232l-30.18-41.119
			c-0.659-0.863-0.986-1.912-1.088-2.986l-5.255-50.443c-0.122-1.217,0.181-2.48,0.72-3.568l6.411-12.285
			c26.639,33.223,40.771,74.311,40.854,116.066l-8.499-3.355L420.274,1229.054z"/>
		<path style="fill:#EBFEFF;" d="M26.746,1229.027c0.04,0,0.081,0,0.121,0c1.131-0.416,2.141-1.217,2.891-2.182l30.887-40.59
			c0.677-0.863,1.016-1.893,1.143-2.969l6.126-50.344c0.121-1.217-0.121-2.48-0.659-3.58l-6.197-12.395
			c-27.21,32.756-42.051,73.596-42.856,115.342l8.556-3.211L26.746,1229.027z"/>
		<path style="fill:#EBFEFF;" d="M223.995,1038.649c19.848,0,38.863,3.361,56.694,9.319l-3.925,3.973
			c-0.865,0.881-2.05,1.52-3.247,1.828l-47.911,12.189c-1.082,0.24-2.165,0.24-3.247,0l-47.912-12.189
			c-1.203-0.305-2.274-0.943-3.145-1.828l-3.949-4.004c17.809-5.938,36.82-9.291,56.64-9.291L223.995,1038.649z"/>
	</g>
	<g>
		<path style="fill:#5A3392;" d="M381.279,1088.87c-4.41,0.285-7.753,4.09-7.469,8.5c0.122,1.887,0.908,3.668,2.219,5.031
			c54.483,58.354,70.76,142.688,41.906,217.125s-97.703,125.77-177.281,132.156s-155.767-33.305-196.125-102.188
			c-2.211-3.828-7.106-5.141-10.935-2.93c-3.829,2.211-5.14,7.105-2.93,10.936c0.017,0.029,0.034,0.059,0.052,0.088
			c43.444,74.148,125.556,116.906,211.219,110.031s159.846-62.184,190.906-142.313s13.524-170.998-45.125-233.813
			C386.083,1089.685,383.713,1088.718,381.279,1088.87z"/>
		<path style="fill:#5A3392;" d="M325.967,1045.902c-4.419-0.043-8.035,3.504-8.079,7.922c-0.03,3.033,1.659,5.822,4.36,7.203
			c12.534,6.717,24.345,14.686,35.25,23.813c3.321,2.916,8.376,2.586,11.291-0.734s2.586-8.375-0.734-11.291
			c-0.1-0.088-0.202-0.174-0.307-0.256c-11.744-9.828-24.439-18.422-37.938-25.656c-1.176-0.654-2.498-1-3.844-1.008V1045.902z"/>
		<path style="fill:#5A3392;" d="M197.248,1021.964c-36.323,4.366-71.563,17.606-102.375,39.344
			c-61.624,43.475-97.245,115.063-94.75,190.438c0.152,4.418,3.857,7.875,8.275,7.723c4.396-0.15,7.846-3.822,7.725-8.219
			c-2.317-70.01,30.731-136.465,87.969-176.846s130.915-49.255,196.094-23.594c4.055,1.756,8.765-0.107,10.521-4.162
			c1.756-4.056-0.108-8.767-4.163-10.522c-0.159-0.068-0.32-0.132-0.483-0.19c-35.087-13.814-72.489-18.336-108.813-13.968V1021.964
			z"/>
		<path style="fill:#5A3392;" d="M11.185,1272.62c-4.418-0.074-8.06,3.447-8.135,7.865c-0.009,0.537,0.036,1.074,0.135,1.604
			c2.869,16.789,7.663,33.199,14.25,48.906c1.594,4.121,6.227,6.17,10.348,4.576s6.17-6.227,4.576-10.348
			c-0.054-0.141-0.112-0.279-0.174-0.416c-6.117-14.584-10.555-29.846-13.219-45.438
			C18.359,1275.529,15.075,1272.679,11.185,1272.62z"/>
	</g>
</g>
<g>
</g>
<g>
</g>
<g>
</g>
<g>
</g>
<g>
</g>
<g>
</g>
<g>
</g>
<g>
</g>
<g>
</g>
<g>
</g>
<g>
</g>
<g>
</g>
<g>
</g>
<g>
</g>
<g>
</g>
</svg>